<svg width="500" height="500" viewBox="0 0 500 500" fill="none" xmlns="http://www.w3.org/2000/svg">
<path d="M318.418 60.9551C300.284 71.3301 287.499 88.7763 271.992 102.778C252.845 120.066 229.118 132.234 203.907 137.696C183.166 142.189 161.425 142.253 141.401 149.284C102.371 162.989 75.5798 203.667 74.8692 245.027C74.1585 286.386 97.7235 326.453 132.305 349.152C144.048 356.861 156.981 362.755 170.502 366.56C195.939 373.72 222.907 373.402 249.19 370.666C294.589 365.94 342.178 340.161 370.788 303.814C383.55 287.601 394.324 269.836 402.907 251.077C417 220.272 425.207 186.739 426.61 152.878C427.816 123.782 426.586 91.5407 403.532 70.3435C380.529 49.1938 345.477 45.4737 318.418 60.9551Z" fill="#5E78F8"/>
<path opacity="0.7" d="M318.418 60.9551C300.284 71.3301 287.499 88.7763 271.992 102.778C252.845 120.066 229.118 132.234 203.907 137.696C183.166 142.189 161.425 142.253 141.401 149.284C102.371 162.989 75.5798 203.667 74.8692 245.027C74.1585 286.386 97.7235 326.453 132.305 349.152C144.048 356.861 156.981 362.755 170.502 366.56C195.939 373.72 222.907 373.402 249.19 370.666C294.589 365.94 342.178 340.161 370.788 303.814C383.55 287.601 394.324 269.836 402.907 251.077C417 220.272 425.207 186.739 426.61 152.878C427.816 123.782 426.586 91.5407 403.532 70.3435C380.529 49.1938 345.477 45.4737 318.418 60.9551Z" fill="white"/>
<path d="M270.708 394C353.026 394 419.758 376.029 419.758 353.86C419.758 331.691 353.026 313.72 270.708 313.72C188.39 313.72 121.658 331.691 121.658 353.86C121.658 376.029 188.39 394 270.708 394Z" fill="#5E78F8"/>
<path opacity="0.5" d="M270.708 394C353.026 394 419.758 376.029 419.758 353.86C419.758 331.691 353.026 313.72 270.708 313.72C188.39 313.72 121.658 331.691 121.658 353.86C121.658 376.029 188.39 394 270.708 394Z" fill="white"/>
<path d="M296.317 72.108V170.334C296.317 174.443 292.987 177.774 288.878 177.774H113.65C109.541 177.774 106.21 174.443 106.21 170.334V72.108C106.21 67.9989 109.541 64.6686 113.65 64.6686H288.878C292.987 64.6686 296.317 67.9989 296.317 72.108Z" fill="white"/>
<path d="M296.317 72.108V75.0535H106.21V72.108C106.21 67.9989 109.541 64.6686 113.65 64.6686H288.878C292.987 64.6686 296.317 67.9989 296.317 72.108Z" fill="#5E78F8"/>
<path d="M296.317 72.108V170.334C296.317 174.443 292.987 177.774 288.878 177.774H113.65C109.541 177.774 106.21 174.443 106.21 170.334V72.108C106.21 67.9989 109.541 64.6686 113.65 64.6686H288.878C292.987 64.6686 296.317 67.9989 296.317 72.108Z" stroke="#263238" stroke-width="0.831129" stroke-miterlimit="10" stroke-linecap="round" stroke-linejoin="round"/>
<path d="M296.317 72.108V75.0535H106.21V72.108C106.21 67.9989 109.541 64.6686 113.65 64.6686H288.878C292.987 64.6686 296.317 67.9989 296.317 72.108Z" stroke="#263238" stroke-width="0.831129" stroke-miterlimit="10" stroke-linecap="round" stroke-linejoin="round"/>
<path d="M127.56 69.8606C127.56 70.9094 126.71 71.7597 125.661 71.7597C124.612 71.7597 123.762 70.9094 123.762 69.8606C123.762 68.8117 124.612 67.9614 125.661 67.9614C126.71 67.9614 127.56 68.8117 127.56 69.8606Z" fill="#263238"/>
<path d="M137.492 69.8606C137.492 70.9094 136.642 71.7597 135.593 71.7597C134.544 71.7597 133.694 70.9094 133.694 69.8606C133.694 68.8117 134.544 67.9614 135.593 67.9614C136.642 67.9614 137.492 68.8117 137.492 69.8606Z" fill="#263238"/>
<path d="M145.527 71.7597C146.575 71.7597 147.426 70.9094 147.426 69.8606C147.426 68.8117 146.575 67.9614 145.527 67.9614C144.478 67.9614 143.627 68.8117 143.627 69.8606C143.627 70.9094 144.478 71.7597 145.527 71.7597Z" fill="#263238"/>
<path d="M174.299 115.275H120.551C118.857 115.275 117.484 113.902 117.484 112.208V86.3526C117.484 84.6588 118.857 83.2858 120.551 83.2858H174.299C175.993 83.2858 177.366 84.6588 177.366 86.3526V112.208C177.366 113.902 175.993 115.275 174.299 115.275Z" stroke="#263238" stroke-width="0.831129" stroke-miterlimit="10" stroke-linecap="round" stroke-linejoin="round"/>
<path d="M121.005 111.253H172.928" stroke="#263238" stroke-width="0.831129" stroke-miterlimit="10" stroke-linecap="round" stroke-linejoin="round"/>
<path d="M130.884 105.145H124.86V111.169H130.884V105.145Z" fill="#5E78F8" stroke="#263238" stroke-width="0.831129" stroke-miterlimit="10"/>
<path d="M139.703 97.2247H133.679V111.253H139.703V97.2247Z" fill="#5E78F8" stroke="#263238" stroke-width="0.831129" stroke-miterlimit="10"/>
<path d="M149.636 99.6373H143.612V111.394H149.636V99.6373Z" fill="#5E78F8" stroke="#263238" stroke-width="0.831129" stroke-miterlimit="10"/>
<path d="M160.07 87.9276H154.046V110.992H160.07V87.9276Z" fill="#5E78F8" stroke="#263238" stroke-width="0.831129" stroke-miterlimit="10"/>
<path d="M170.504 88.1046H164.48V111.169H170.504V88.1046Z" fill="#5E78F8" stroke="#263238" stroke-width="0.831129" stroke-miterlimit="10"/>
<path d="M251.604 116.932C260.908 116.932 268.451 109.39 268.451 100.085C268.451 90.7809 260.908 83.2383 251.604 83.2383C242.299 83.2383 234.757 90.7809 234.757 100.085C234.757 109.39 242.299 116.932 251.604 116.932Z" fill="#5E78F8" stroke="#263238" stroke-width="0.831129" stroke-miterlimit="10"/>
<path d="M252.985 110.595V112.32H250.162V110.595C247.777 109.999 246.24 107.991 246.24 105.356V104.571L249.44 104.226V105.041C249.44 106.641 250.255 107.614 251.574 107.614C252.891 107.614 253.707 106.798 253.707 105.512C253.707 103.974 252.264 102.657 250.57 101.245C248.562 99.5825 246.554 97.6053 246.554 94.8135C246.554 92.0841 247.871 90.1392 250.162 89.5741V87.8486H252.985V89.5741C255.306 90.1076 256.655 92.0525 256.655 94.8442V95.4086L253.455 95.7535V95.126C253.455 93.4322 252.796 92.5537 251.636 92.5537C250.476 92.5537 249.817 93.2751 249.817 94.6556C249.817 96.1932 251.291 97.4789 252.954 98.9226C254.931 100.616 256.969 102.562 256.969 105.354C256.969 108.022 255.4 110.03 252.985 110.595Z" fill="#263238"/>
<path d="M116.083 131.622H121.005" stroke="#263238" stroke-width="0.831129" stroke-miterlimit="10" stroke-linecap="round" stroke-linejoin="round"/>
<path d="M116.083 141.131H121.005" stroke="#263238" stroke-width="0.831129" stroke-miterlimit="10" stroke-linecap="round" stroke-linejoin="round"/>
<path d="M116.083 150.64H121.005" stroke="#263238" stroke-width="0.831129" stroke-miterlimit="10" stroke-linecap="round" stroke-linejoin="round"/>
<path d="M116.083 160.149H121.005" stroke="#263238" stroke-width="0.831129" stroke-miterlimit="10" stroke-linecap="round" stroke-linejoin="round"/>
<path d="M131.849 167.336V163.513" stroke="#263238" stroke-width="0.831129" stroke-miterlimit="10" stroke-linecap="round" stroke-linejoin="round"/>
<path d="M139.646 167.335V163.513" stroke="#263238" stroke-width="0.831129" stroke-miterlimit="10" stroke-linecap="round" stroke-linejoin="round"/>
<path d="M147.446 167.335V163.513" stroke="#263238" stroke-width="0.831129" stroke-miterlimit="10" stroke-linecap="round" stroke-linejoin="round"/>
<path d="M155.243 167.335V163.513" stroke="#263238" stroke-width="0.831129" stroke-miterlimit="10" stroke-linecap="round" stroke-linejoin="round"/>
<path d="M163.042 167.335V163.513" stroke="#263238" stroke-width="0.831129" stroke-miterlimit="10" stroke-linecap="round" stroke-linejoin="round"/>
<path d="M170.839 167.335V163.513" stroke="#263238" stroke-width="0.831129" stroke-miterlimit="10" stroke-linecap="round" stroke-linejoin="round"/>
<path d="M178.638 167.335V163.513" stroke="#263238" stroke-width="0.831129" stroke-miterlimit="10" stroke-linecap="round" stroke-linejoin="round"/>
<path d="M186.436 167.335V163.513" stroke="#263238" stroke-width="0.831129" stroke-miterlimit="10" stroke-linecap="round" stroke-linejoin="round"/>
<path d="M194.234 167.335V163.513" stroke="#263238" stroke-width="0.831129" stroke-miterlimit="10" stroke-linecap="round" stroke-linejoin="round"/>
<path d="M202.031 167.335V163.513" stroke="#263238" stroke-width="0.831129" stroke-miterlimit="10" stroke-linecap="round" stroke-linejoin="round"/>
<path d="M209.83 167.335V163.513" stroke="#263238" stroke-width="0.831129" stroke-miterlimit="10" stroke-linecap="round" stroke-linejoin="round"/>
<path d="M217.628 167.335V163.513" stroke="#263238" stroke-width="0.831129" stroke-miterlimit="10" stroke-linecap="round" stroke-linejoin="round"/>
<path d="M225.426 167.335V163.513" stroke="#263238" stroke-width="0.831129" stroke-miterlimit="10" stroke-linecap="round" stroke-linejoin="round"/>
<path d="M233.225 167.335V163.513" stroke="#263238" stroke-width="0.831129" stroke-miterlimit="10" stroke-linecap="round" stroke-linejoin="round"/>
<path d="M241.022 167.335V163.513" stroke="#263238" stroke-width="0.831129" stroke-miterlimit="10" stroke-linecap="round" stroke-linejoin="round"/>
<path d="M248.524 167.335V163.513" stroke="#263238" stroke-width="0.831129" stroke-miterlimit="10" stroke-linecap="round" stroke-linejoin="round"/>
<path d="M256.028 167.335V163.513" stroke="#263238" stroke-width="0.831129" stroke-miterlimit="10" stroke-linecap="round" stroke-linejoin="round"/>
<path d="M263.53 167.335V163.513" stroke="#263238" stroke-width="0.831129" stroke-miterlimit="10" stroke-linecap="round" stroke-linejoin="round"/>
<path d="M283.377 125.799V162.754C283.377 165.285 280.801 167.335 277.621 167.335H121.839C119.726 167.335 117.874 166.429 116.878 165.076C116.375 164.396 116.083 163.603 116.083 162.754V125.799C116.083 123.268 118.66 121.219 121.84 121.219H277.623C280.801 121.219 283.377 123.268 283.377 125.799Z" stroke="#5E78F8" stroke-width="0.831129" stroke-miterlimit="10" stroke-linecap="round" stroke-linejoin="round"/>
<path d="M235.966 54.2336L186.238 121.218L167.219 146.836L146.447 133.606L121.03 167.335H120.662C118.98 167.335 117.507 166.43 116.714 165.077L145.277 127.169L166.033 140.381L180.254 121.218L232.104 51.3754L235.966 54.2336Z" fill="#263238"/>
<path d="M223.347 55.0831L241.63 44L236.572 63.1658L233.351 54.2993L223.347 55.0831Z" fill="#263238"/>
<path d="M396.312 265.989H104.014L71.2529 295.117" stroke="#263238" stroke-width="0.831129" stroke-miterlimit="10" stroke-linecap="round" stroke-linejoin="round"/>
<path d="M104.198 245.59V188.947" stroke="#263238" stroke-width="0.831129" stroke-miterlimit="10" stroke-linecap="round" stroke-linejoin="round"/>
<path d="M104.198 262.7V251.744" stroke="#263238" stroke-width="0.831129" stroke-miterlimit="10" stroke-linecap="round" stroke-linejoin="round"/>
<path d="M378.717 128.188C378.717 128.188 378.717 124.765 373.922 119.97C369.128 115.175 366.052 112.442 366.052 112.442C366.052 112.442 363.655 120.312 368.102 125.106C371.375 128.486 374.926 131.585 378.716 134.371V128.188H378.717Z" fill="#5E78F8"/>
<path d="M371.763 149.568C371.763 149.568 371.763 146.145 366.968 141.35C362.173 136.556 359.099 133.823 359.099 133.823C359.099 133.823 356.701 141.693 361.149 146.488C364.423 149.865 367.974 152.964 371.763 155.753V149.568Z" fill="#5E78F8"/>
<path d="M378.416 134.019C378.416 134.019 378.775 130.614 384.05 126.352C389.326 122.09 392.672 119.698 392.672 119.698C392.672 119.698 394.224 127.805 389.291 132.073C385.68 135.082 381.824 137.782 377.761 140.145L378.416 134.019Z" fill="#5E78F8"/>
<path d="M370.014 159.267C370.014 159.267 370.732 155.92 376.419 152.237C382.105 148.555 385.684 146.522 385.684 146.522C385.684 146.522 386.379 154.722 381.051 158.479C377.145 161.089 373.027 163.366 368.74 165.288L370.014 159.267Z" fill="#5E78F8"/>
<path d="M371.595 186.79C371.595 186.79 371.595 183.368 376.384 178.579C381.173 173.79 384.259 171.051 384.259 171.051C384.259 171.051 386.656 178.926 382.204 183.715C378.934 187.096 375.386 190.195 371.596 192.981V186.79H371.595Z" fill="#5E78F8"/>
<path d="M371.514 193.513C371.514 193.513 372 190.125 367.935 184.699C363.87 179.274 361.212 176.123 361.212 176.123C361.212 176.123 357.738 183.576 361.45 188.955C364.211 192.756 367.285 196.32 370.639 199.61L371.514 193.513Z" fill="#5E78F8"/>
<path d="M366.789 213.422C366.789 213.422 366.789 209.999 371.578 205.21C376.367 200.421 379.453 197.682 379.453 197.682C379.453 197.682 381.85 205.557 377.398 210.346C374.128 213.727 370.579 216.826 366.789 219.612V213.422Z" fill="#5E78F8"/>
<path d="M369.985 231.477C369.985 231.477 369.123 228.165 372.551 222.305C375.979 216.444 378.261 213.039 378.261 213.039C378.261 213.039 382.569 220.052 379.483 225.814C377.169 229.904 374.518 233.793 371.555 237.441L369.985 231.477Z" fill="#5E78F8"/>
<path d="M379.152 127.337C378.908 130.9 378.469 134.447 377.837 137.963C375.944 147.749 371.206 154.067 369.313 162.903C367.42 171.74 372.857 183.136 371.403 194.492C369.95 205.848 365.525 212.159 366.77 219.739C368.016 227.319 374.663 247.835 374.663 247.835" stroke="#263238" stroke-width="0.978654" stroke-linecap="round" stroke-linejoin="round"/>
<path d="M378.37 136.295L383.535 132.328" stroke="#263238" stroke-width="0.978654" stroke-linecap="round" stroke-linejoin="round"/>
<path d="M378.607 131.732L376.447 127.887" stroke="#263238" stroke-width="0.978654" stroke-linecap="round" stroke-linejoin="round"/>
<path d="M369.603 162.475C369.603 162.475 373.923 159.232 378.369 155.99" stroke="#263238" stroke-width="0.978654" stroke-linecap="round" stroke-linejoin="round"/>
<path d="M371.763 155.711C371.763 155.711 368.161 148.647 364.079 143.962" stroke="#263238" stroke-width="0.978654" stroke-linecap="round" stroke-linejoin="round"/>
<path d="M371.763 191.66C374.238 187.111 377.359 182.945 381.028 179.291" stroke="#263238" stroke-width="0.978654" stroke-linecap="round" stroke-linejoin="round"/>
<path d="M370.923 196.467C369.61 193.374 368.043 190.395 366.238 187.56C363.713 183.837 363.342 183.356 363.342 183.356" stroke="#263238" stroke-width="0.978654" stroke-linecap="round" stroke-linejoin="round"/>
<path d="M366.789 219.717C367.883 216.996 369.184 214.363 370.68 211.841C372.177 209.504 373.864 207.294 375.724 205.233" stroke="#263238" stroke-width="0.978654" stroke-linecap="round" stroke-linejoin="round"/>
<path d="M371.548 237.436C371.548 237.436 371.045 233.336 372.846 229.856C374.647 226.376 376.685 221.807 377.531 220.012" stroke="#263238" stroke-width="0.978654" stroke-linecap="round" stroke-linejoin="round"/>
<path d="M347.337 173.917C347.337 173.917 346.961 171.775 349.451 168.248C351.941 164.722 353.568 162.66 353.568 162.66C353.568 162.66 355.925 167.334 353.655 170.825C351.968 173.296 350.077 175.62 348.003 177.774L347.337 173.917Z" fill="#5E78F8"/>
<path d="M354.02 186.57C354.02 186.57 353.643 184.422 356.128 180.895C358.612 177.369 360.251 175.318 360.251 175.318C360.251 175.318 362.608 179.998 360.338 183.483C358.653 185.954 356.762 188.279 354.686 190.433L354.02 186.57Z" fill="#5E78F8"/>
<path d="M348.16 177.542C348.16 177.542 347.581 175.446 343.794 173.35C340.006 171.254 337.662 170.107 337.662 170.107C337.662 170.107 337.569 175.318 341.136 177.508C343.728 178.999 346.44 180.271 349.243 181.312L348.16 177.542Z" fill="#5E78F8"/>
<path d="M356.169 192.46C356.169 192.46 355.352 190.438 351.385 188.748C347.418 187.057 344.946 186.177 344.946 186.177C344.946 186.177 345.403 191.389 349.167 193.167C351.901 194.379 354.731 195.361 357.627 196.102L356.169 192.46Z" fill="#5E78F8"/>
<path d="M358.165 209.895C358.165 209.895 357.795 207.747 354.268 205.262C350.742 202.778 348.513 201.394 348.513 201.394C348.513 201.394 347.864 206.606 351.177 209.113C353.594 210.868 356.155 212.418 358.832 213.746L358.165 209.895Z" fill="#5E78F8"/>
<path d="M358.942 214.099C358.942 214.099 358.271 212.026 360.228 208.186C362.185 204.347 363.517 202.078 363.517 202.078C363.517 202.078 366.511 206.374 364.762 210.149C363.435 212.833 361.884 215.402 360.129 217.828L358.942 214.099Z" fill="#5E78F8"/>
<path d="M364.958 231.414C364.958 231.414 365.208 229.248 368.584 226.567C371.96 223.886 374.108 222.38 374.108 222.38C374.108 222.38 375.052 227.528 371.891 230.239C369.577 232.131 367.109 233.828 364.514 235.311L364.958 231.414Z" fill="#5E78F8"/>
<path d="M364.067 226.075C364.067 226.075 363.696 223.926 360.17 221.442C356.643 218.958 354.42 217.574 354.42 217.574C354.42 217.574 353.772 222.786 357.078 225.293C359.497 227.049 362.06 228.598 364.739 229.925L364.067 226.075Z" fill="#5E78F8"/>
<path d="M364.02 237.743C364.02 237.743 364.205 235.571 361.426 232.277C358.647 228.982 356.84 227.065 356.84 227.065C356.84 227.065 354.894 231.929 357.46 235.206C359.354 237.524 361.439 239.68 363.691 241.652L364.02 237.743Z" fill="#5E78F8"/>
<path d="M346.967 173.414C347.506 175.624 348.167 177.803 348.947 179.94C351.194 185.87 354.848 189.315 356.997 194.654C359.145 199.993 356.997 207.723 359.116 214.684C361.236 221.645 364.721 225.107 364.75 230.018C364.78 234.929 362.851 248.497 362.851 248.497" stroke="#263238" stroke-width="0.978654" stroke-linecap="round" stroke-linejoin="round"/>
<path d="M348.431 178.961L344.766 177.039" stroke="#263238" stroke-width="0.978654" stroke-linecap="round" stroke-linejoin="round"/>
<path d="M347.789 176.13L348.727 173.483" stroke="#263238" stroke-width="0.978654" stroke-linecap="round" stroke-linejoin="round"/>
<path d="M356.776 194.428C356.776 194.428 353.713 192.864 350.574 191.313" stroke="#263238" stroke-width="0.978654" stroke-linecap="round" stroke-linejoin="round"/>
<path d="M354.686 190.456C355.586 187.609 356.774 184.862 358.23 182.256" stroke="#263238" stroke-width="0.978654" stroke-linecap="round" stroke-linejoin="round"/>
<path d="M358.588 212.964C356.546 210.38 354.139 208.106 351.442 206.212" stroke="#263238" stroke-width="0.978654" stroke-linecap="round" stroke-linejoin="round"/>
<path d="M359.637 215.888C360.123 213.811 360.782 211.777 361.606 209.808C362.763 207.196 362.96 206.855 362.96 206.855" stroke="#263238" stroke-width="0.978654" stroke-linecap="round" stroke-linejoin="round"/>
<path d="M364.588 233.724C364.588 233.724 367.014 230.747 368.532 229.629C369.443 228.955 370.299 228.21 371.091 227.4" stroke="#263238" stroke-width="0.978654" stroke-linecap="round" stroke-linejoin="round"/>
<path d="M364.75 230.018C363.768 228.431 362.666 226.921 361.455 225.5C360.263 224.198 358.965 222.995 357.576 221.904" stroke="#263238" stroke-width="0.978654" stroke-linecap="round" stroke-linejoin="round"/>
<path d="M363.69 241.652C363.569 239.989 363.005 238.39 362.057 237.019C360.546 235.027 358.768 232.386 358.05 231.35" stroke="#263238" stroke-width="0.978654" stroke-linecap="round" stroke-linejoin="round"/>
<path d="M379.649 271.908H357.824C356.925 271.908 356.196 271.179 356.196 270.281L353.064 246.127H384.409L381.277 270.281C381.277 271.179 380.548 271.908 379.649 271.908Z" fill="#263238"/>
<path d="M384.132 250.216H353.064C351.717 250.216 350.621 249.13 350.609 247.784C350.609 246.431 351.705 245.334 353.058 245.334C353.06 245.334 353.062 245.334 353.064 245.334H384.132C385.485 245.331 386.583 246.426 386.587 247.778C386.587 247.78 386.587 247.782 386.587 247.784C386.574 249.131 385.478 250.216 384.132 250.216Z" fill="#263238"/>
<path d="M314.091 153.614C314.091 167.933 304.105 179.931 290.71 183.01C290.677 183.021 290.655 183.021 290.622 183.032C289.83 183.208 289.039 183.362 288.224 183.483C286.816 183.681 285.376 183.791 283.913 183.791C267.241 183.791 253.725 170.275 253.725 153.613C253.725 137.315 266.647 124.03 282.802 123.458C283.077 123.436 283.363 123.436 283.649 123.436C283.737 123.425 283.825 123.425 283.913 123.425C284.012 123.425 284.122 123.425 284.221 123.436C288.422 123.469 292.414 124.371 296.043 125.977C306.667 130.64 314.091 141.264 314.091 153.614Z" fill="#5E78F8"/>
<path opacity="0.4" d="M296.044 125.978C261.193 124.163 261.027 162.852 261.027 162.852C261.027 162.852 255.705 150.227 264.393 136.239C269.242 128.419 277.7 124.966 284.221 123.438C288.422 123.47 292.414 124.372 296.044 125.978Z" fill="white"/>
<path d="M314.09 153.614C314.09 167.966 304.06 179.986 290.622 183.032C288.467 183.527 286.223 183.791 283.914 183.791C267.241 183.791 253.726 170.275 253.726 153.613C253.726 137.315 266.648 124.03 282.803 123.458C283.166 123.437 283.54 123.425 283.913 123.425C300.574 123.426 314.09 136.942 314.09 153.614Z" stroke="#263238" stroke-width="0.831129" stroke-miterlimit="10" stroke-linecap="round" stroke-linejoin="round"/>
<path d="M314.09 153.614C314.09 167.966 304.06 179.986 290.622 183.032C290.259 183.055 289.885 183.065 289.511 183.065C272.839 183.065 259.334 169.549 259.334 152.877C259.334 138.525 269.364 126.505 282.803 123.458C283.166 123.437 283.54 123.425 283.913 123.425C300.574 123.426 314.09 136.942 314.09 153.614Z" stroke="#263238" stroke-width="0.831129" stroke-miterlimit="10" stroke-linecap="round" stroke-linejoin="round"/>
<path d="M294.311 172.502L295.093 175.689L289.877 176.968L289.095 173.781C284.42 173.76 280.671 170.747 279.476 165.879L279.122 164.431L284.876 162.343L285.245 163.85C285.97 166.806 287.917 168.233 290.352 167.635C292.785 167.038 293.923 165.162 293.341 162.786C292.643 159.947 289.381 158.166 285.611 156.326C281.149 154.164 276.544 151.423 275.279 146.265C274.043 141.223 275.595 137.032 279.571 134.952L278.789 131.765L284.004 130.486L284.787 133.673C289.317 133.606 292.69 136.589 293.955 141.746L294.211 142.789L288.456 144.876L288.172 143.717C287.404 140.587 285.789 139.263 283.645 139.789C281.501 140.315 280.609 141.946 281.236 144.497C281.932 147.335 285.239 149.044 288.964 150.956C293.383 153.192 298.031 155.861 299.296 161.018C300.506 165.943 298.518 170.363 294.311 172.502Z" stroke="#263238" stroke-width="0.831129" stroke-miterlimit="10"/>
<path opacity="0.3" d="M294.311 172.502L295.093 175.689L289.877 176.968L289.095 173.781C284.42 173.76 280.671 170.747 279.476 165.879L279.122 164.431L284.876 162.343L285.245 163.85C285.97 166.806 287.917 168.233 290.352 167.635C292.785 167.038 293.923 165.162 293.341 162.786C292.643 159.947 289.381 158.166 285.611 156.326C281.149 154.164 276.544 151.423 275.279 146.265C274.043 141.223 275.595 137.032 279.571 134.952L278.789 131.765L284.004 130.486L284.787 133.673C289.317 133.606 292.69 136.589 293.955 141.746L294.211 142.789L288.456 144.876L288.172 143.717C287.404 140.587 285.789 139.263 283.645 139.789C281.501 140.315 280.609 141.946 281.236 144.497C281.932 147.335 285.239 149.044 288.964 150.956C293.383 153.192 298.031 155.861 299.296 161.018C300.506 165.943 298.518 170.363 294.311 172.502Z" fill="black"/>
<path d="M268.49 179.557L274.866 179.265" stroke="#263238" stroke-width="0.831129" stroke-miterlimit="10" stroke-linecap="round" stroke-linejoin="round"/>
<path d="M265.421 177.44L270.985 176.968" stroke="#263238" stroke-width="0.831129" stroke-miterlimit="10" stroke-linecap="round" stroke-linejoin="round"/>
<path d="M262.925 175.202L268.49 174.731" stroke="#263238" stroke-width="0.831129" stroke-miterlimit="10" stroke-linecap="round" stroke-linejoin="round"/>
<path d="M262.165 132.682H266.929" stroke="#263238" stroke-width="0.831129" stroke-miterlimit="10" stroke-linecap="round" stroke-linejoin="round"/>
<path d="M264.517 130.485L269.26 130.27" stroke="#263238" stroke-width="0.831129" stroke-miterlimit="10" stroke-linecap="round" stroke-linejoin="round"/>
<path d="M267.487 128.287L272.493 127.816" stroke="#263238" stroke-width="0.831129" stroke-miterlimit="10" stroke-linecap="round" stroke-linejoin="round"/>
<path opacity="0.3" d="M290.709 183.01C290.676 183.021 290.655 183.021 290.621 183.032C288.466 183.527 286.222 183.791 283.913 183.791C267.241 183.791 253.725 170.275 253.725 153.613C253.725 137.315 266.647 124.03 282.802 123.458C283.077 123.436 283.363 123.436 283.649 123.436C276.292 125.756 263.952 131.684 260.653 144.045C255.968 161.598 266.505 181.537 290.709 183.01Z" fill="black"/>
<path opacity="0.1" d="M314.091 153.614C314.091 167.933 304.104 179.931 290.71 183.01C290.677 183.021 290.655 183.021 290.622 183.032C289.83 183.208 289.039 183.362 288.224 183.483L296.043 125.978C306.667 130.64 314.091 141.264 314.091 153.614Z" fill="black"/>
<path d="M331.214 106.105C326.198 113.199 317.049 115.64 309.351 112.451C309.317 112.44 309.273 112.418 309.241 112.407C308.669 112.165 308.097 111.89 307.536 111.582C306.931 111.252 306.349 110.889 305.777 110.483C297.54 104.665 295.582 93.2717 301.4 85.0344C306.998 77.1162 317.743 75.0043 325.88 80.0418C326.023 80.1191 326.155 80.2072 326.287 80.2945C326.474 80.4042 326.661 80.5363 326.848 80.6685C327.134 80.8663 327.409 81.0757 327.673 81.2951C335.195 87.2552 336.833 98.1646 331.214 106.105Z" fill="#5E78F8"/>
<path opacity="0.4" d="M303.672 106.354C303.672 106.354 300.683 97.5687 304.652 91.1042C309.633 82.9941 317.276 79.3005 327.671 81.2952C327.671 81.2952 322.034 77.4903 312.601 80.1907C303.17 82.8902 298.11 95.8683 303.672 106.354Z" fill="white"/>
<path d="M331.211 106.109C326.201 113.198 317.051 115.634 309.349 112.448C308.112 111.94 306.912 111.287 305.771 110.48C297.536 104.66 295.578 93.2652 301.394 85.0362C307.084 76.9859 318.104 74.9346 326.284 80.2921C326.471 80.4076 326.659 80.5331 326.844 80.6636C335.074 86.4799 337.032 97.8746 331.211 106.109Z" stroke="#263238" stroke-width="0.831129" stroke-miterlimit="10" stroke-linecap="round" stroke-linejoin="round"/>
<path d="M331.211 106.109C326.201 113.198 317.05 115.634 309.349 112.448C309.162 112.332 308.973 112.207 308.789 112.076C300.554 106.256 298.602 94.8651 304.422 86.6302C309.432 79.5415 318.583 77.1055 326.284 80.2921C326.471 80.4076 326.66 80.5331 326.844 80.6636C335.074 86.4798 337.031 97.8746 331.211 106.109Z" stroke="#263238" stroke-width="0.831129" stroke-miterlimit="10" stroke-linecap="round" stroke-linejoin="round"/>
<path d="M314.848 108.534L314.122 110.381L311.099 109.192L311.825 107.345C309.523 105.702 308.723 102.905 309.833 100.084L310.164 99.2443L313.735 100.222L313.392 101.095C312.718 102.809 313.182 104.193 314.593 104.748C316.003 105.302 317.22 104.773 317.762 103.396C318.409 101.75 317.419 99.7314 316.199 97.5064C314.75 94.8809 313.433 91.9196 314.609 88.93C315.758 86.0078 317.988 84.4793 320.678 84.84L321.404 82.9924L324.427 84.1809L323.7 86.0285C325.961 87.5769 326.587 90.2274 325.411 93.217L325.173 93.8212L321.602 92.8438L321.866 92.1722C322.579 90.3587 322.243 89.1403 321.001 88.6524C319.758 88.1637 318.749 88.6582 318.168 90.1368C317.52 91.7816 318.557 93.7805 319.73 96.0254C321.133 98.6725 322.497 101.614 321.321 104.603C320.198 107.458 317.673 108.947 314.848 108.534Z" stroke="#263238" stroke-width="0.831129" stroke-miterlimit="10"/>
<path opacity="0.3" d="M314.848 108.534L314.122 110.381L311.099 109.192L311.825 107.345C309.523 105.702 308.723 102.905 309.833 100.084L310.164 99.2443L313.735 100.222L313.392 101.095C312.718 102.809 313.182 104.193 314.593 104.748C316.003 105.302 317.22 104.773 317.762 103.396C318.409 101.75 317.419 99.7314 316.199 97.5064C314.75 94.8809 313.433 91.9196 314.609 88.93C315.758 86.0078 317.988 84.4793 320.678 84.84L321.404 82.9924L324.427 84.1809L323.7 86.0285C325.961 87.5769 326.587 90.2274 325.411 93.217L325.173 93.8212L321.602 92.8438L321.866 92.1722C322.579 90.3587 322.243 89.1403 321.001 88.6524C319.758 88.1637 318.749 88.6582 318.168 90.1368C317.52 91.7816 318.557 93.7805 319.73 96.0254C321.133 98.6725 322.497 101.614 321.321 104.603C320.198 107.458 317.673 108.947 314.848 108.534Z" fill="black"/>
<path opacity="0.3" d="M325.879 80.041C320.864 79.15 314.574 78.6555 311.165 80.8438C304.907 84.8582 301.014 89.9164 301.069 98.1205C301.124 106.325 308.79 112.076 308.79 112.076L309.24 112.406C308.041 111.9 306.875 111.262 305.776 110.481C297.539 104.663 295.581 93.2701 301.399 85.0327C306.997 77.1154 317.742 75.0043 325.879 80.041Z" fill="black"/>
<path opacity="0.1" d="M331.213 106.105C326.198 113.199 317.048 115.64 309.35 112.451C309.317 112.44 309.273 112.418 309.241 112.407C308.669 112.165 308.097 111.89 307.536 111.582L327.673 81.2953C335.194 87.2553 336.833 98.1647 331.213 106.105Z" fill="black"/>
<path d="M321.806 340.157C314.023 349.397 304.884 357.494 294.509 363.719C291.261 365.662 287.941 367.393 284.54 368.921C260.928 379.537 234.015 380.226 208.844 374.123C155.929 361.3 127.853 314.591 124.291 262.741C123.329 248.723 121.184 233.591 126.862 220.262C132.489 207.043 144.017 198.663 157.002 192.894C166.425 188.704 176.607 185.88 185.858 183.583C202.7 179.403 220.158 181.316 235.795 188.734C246.675 193.896 254.428 202.834 263.578 210.414C264.55 211.214 265.521 212.013 266.503 212.803C275.743 220.242 285.48 227.084 295.611 233.258C310.996 242.64 326.744 251.496 336.572 267.255C352.24 292.365 339.012 319.713 321.806 340.157Z" fill="#5E78F8"/>
<path opacity="0.4" d="M321.806 340.157C314.023 349.397 304.884 357.494 294.509 363.719C291.261 365.662 287.941 367.393 284.54 368.921C260.928 379.537 234.015 380.226 208.844 374.123C155.929 361.3 127.853 314.591 124.291 262.741C123.329 248.723 121.184 233.591 126.862 220.262C132.489 207.043 144.017 198.663 157.002 192.894C166.425 188.704 176.607 185.88 185.858 183.583C202.7 179.403 220.158 181.316 235.795 188.734C246.675 193.896 254.428 202.834 263.578 210.414C264.55 211.214 265.521 212.013 266.503 212.803C275.743 220.242 285.48 227.084 295.611 233.258C310.996 242.64 326.744 251.496 336.572 267.255C352.24 292.365 339.012 319.713 321.806 340.157Z" fill="white"/>
<path d="M266.504 212.8C265.523 212.011 264.548 211.215 263.579 210.412C254.427 202.835 246.674 193.896 235.797 188.735C220.158 181.313 202.695 179.405 185.858 183.584C163.86 189.044 136.571 197.45 126.861 220.263C121.187 233.595 123.33 248.723 124.293 262.737C127.857 314.592 155.926 361.301 208.842 374.126C237.639 381.105 268.702 379.196 294.513 363.718C304.881 357.5 314.026 349.394 321.801 340.157C339.008 319.714 352.244 292.364 336.577 267.254C326.747 251.498 311 242.643 295.611 233.261C285.478 227.082 275.749 220.241 266.504 212.8Z" stroke="#263238" stroke-width="0.831129" stroke-miterlimit="10"/>
<path d="M186.307 305.266C181.942 306.614 177.544 308.301 173.535 310.403" stroke="#263238" stroke-width="0.831129" stroke-miterlimit="10" stroke-linecap="round" stroke-linejoin="round"/>
<path d="M213.31 300.133C213.31 300.133 204.657 300.724 194.148 303.161" stroke="#263238" stroke-width="0.831129" stroke-miterlimit="10" stroke-linecap="round" stroke-linejoin="round"/>
<path d="M207.667 298.797C207.667 298.797 182.83 284.352 152.858 295.93" stroke="#263238" stroke-width="0.831129" stroke-miterlimit="10" stroke-linecap="round" stroke-linejoin="round"/>
<path opacity="0.1" d="M321.806 340.157C314.023 349.397 304.883 357.494 294.509 363.719C291.26 365.662 287.941 367.393 284.54 368.921C281.838 368.09 279.186 367.13 276.584 366.006C261.079 359.346 248.063 348.112 235.34 337.019C227.668 330.339 219.876 323.558 210.695 319.175C198.428 313.315 183.985 312.13 170.929 315.906C177.669 308.244 187.143 303.032 197.224 301.433C190.666 295.461 181.527 292.951 172.65 292.789C163.774 292.617 158.885 293.72 150.221 295.663C153.116 290.329 160.818 285.502 166.891 285.643C160.818 285.501 153.886 285.096 149.624 284.419C141.78 283.154 138.279 273.933 137.104 266.089C133.865 244.491 137.145 221.465 148.936 203.095C151.406 199.248 154.098 195.868 157.003 192.893C166.426 188.702 176.608 185.879 185.858 183.581C202.7 179.402 220.159 181.314 235.796 188.733C246.676 193.895 254.429 202.832 263.579 210.413C264.55 211.212 265.522 212.012 266.504 212.801C275.744 220.241 285.481 227.083 295.612 233.256C310.996 242.639 326.745 251.495 336.573 267.254C352.24 292.365 339.012 319.713 321.806 340.157Z" fill="black"/>
<path d="M330.433 339.544C330.433 339.544 337.416 345.422 345.031 350.303C354.916 350.967 350.483 362.917 350.483 362.917L342.022 368.355C342.022 368.355 327.571 356.868 319.683 353.137C311.796 349.405 330.433 339.544 330.433 339.544Z" fill="white"/>
<path opacity="0.3" d="M260.244 213.778C260.244 213.778 258.886 200.37 256.729 196.603L223.915 189.897V187.357C223.915 187.357 224.672 182.932 217.357 180.166C210.043 177.399 194.805 180.996 190.873 183.97C186.942 186.943 188.383 192.064 188.383 192.064C188.383 192.064 175.161 198.763 169.215 201.311C163.269 203.859 155.02 208.791 155.02 208.791C155.02 208.791 152.333 239.603 152.859 246.759C153.385 253.915 152.432 260.648 153.043 264.613C153.655 268.579 154.14 270.833 158.301 274.206C162.461 277.58 166.231 282.559 177.132 277.62L175.612 276.417L247.373 252.288L260.244 213.778Z" fill="black"/>
<path d="M260.244 213.778C260.244 213.778 258.886 200.37 256.729 196.603L223.915 189.897V187.357C223.915 187.357 224.672 182.932 217.357 180.166C210.043 177.399 194.805 180.996 190.873 183.97C186.942 186.943 188.383 192.064 188.383 192.064C188.383 192.064 175.161 198.763 169.215 201.311C163.269 203.859 155.02 208.791 155.02 208.791C155.02 208.791 152.333 239.603 152.859 246.759C153.385 253.915 152.432 260.648 153.043 264.613C153.655 268.579 154.14 270.833 158.301 274.206C162.461 277.58 166.231 282.559 177.132 277.62L175.612 276.417L247.373 252.288L260.244 213.778Z" fill="#5E78F8"/>
<path opacity="0.05" d="M260.244 213.778C260.244 213.778 258.886 200.37 256.729 196.603L223.915 189.897V187.357C223.915 187.357 224.672 182.932 217.357 180.166C210.043 177.399 194.805 180.996 190.873 183.97C186.942 186.943 188.383 192.064 188.383 192.064C188.383 192.064 175.161 198.763 169.215 201.311C163.269 203.859 155.02 208.791 155.02 208.791C155.02 208.791 152.333 239.603 152.859 246.759C153.385 253.915 152.432 260.648 153.043 264.613C153.655 268.579 154.14 270.833 158.301 274.206C162.461 277.58 166.231 282.559 177.132 277.62L175.612 276.417L247.373 252.288L260.244 213.778Z" fill="black"/>
<path opacity="0.1" d="M257.16 198.221H243.432C240.765 198.221 238.49 200.15 238.052 202.781L231.285 243.535C231.285 243.535 221.971 244.31 215.372 249.127C208.773 253.944 192.541 219.604 166.889 219.588C166.889 219.588 174.27 236.456 175.908 249.92C175.908 249.92 159.875 248.176 157.213 254.449C154.55 260.723 158.423 272.485 165.201 267.934C171.978 263.385 178.33 255.768 182.9 260.545C187.471 265.321 207.666 267.934 207.666 267.934L238.809 252.289L250.888 246.612L257.16 198.221Z" fill="black"/>
<path opacity="0.4" d="M213.567 178.047C213.567 178.047 221.365 180.21 222.628 182.824C223.89 185.438 223.76 192.066 223.76 192.066C223.76 192.066 221.636 197.951 215.373 203.603L209.551 192.066L210.073 205.153C210.073 205.153 199.037 203.316 194.353 199.785C189.67 196.255 189.67 196.255 189.67 196.255C189.67 196.255 187.654 189.63 187.94 187.358C188.226 185.086 196.673 180.529 196.673 180.529L213.567 178.047Z" fill="white"/>
<path d="M343.421 379.771C343.207 379.292 346.623 373.263 343.949 367.118C341.274 360.972 337.009 363.341 337.009 363.341C337.009 363.341 324.866 355.614 319.762 353.174C314.658 350.733 309.166 346.874 309.166 346.874L303.774 354.136L308.758 369.564L343.421 379.771Z" fill="#5E78F8"/>
<path d="M336.563 362.968L352.158 372.498C352.158 372.498 363.117 365.464 368.35 360.609C373.583 355.753 385.279 345.421 385.279 345.421L392.747 335.353C392.747 335.353 387.557 328.937 378.914 334.094C367.743 340.759 354.122 350.396 345.032 350.303C345.032 350.303 346.825 361.466 336.563 362.968Z" fill="#5E78F8"/>
<path d="M210.923 137.749C210.923 137.749 218 148.453 219.287 151.92C220.575 155.386 221.613 160.517 221.352 162.982C221.09 165.447 218.508 178.673 217.171 179.059L215.916 180.478L216.721 186.08C216.721 186.08 211.185 195.652 194.91 188.636C194.91 188.636 194.275 177.459 192.297 173.955C190.319 170.45 187.358 174.619 184.397 164.488C181.436 154.357 190.878 143.754 190.878 143.754L210.923 137.749Z" fill="white"/>
<path opacity="0.5" d="M386.006 332.23C386.006 332.23 377.994 333.621 375.389 338.367C372.785 343.112 367.794 351.935 366.089 356.2C364.384 360.465 350.285 370.763 350.285 370.763L352.157 372.499C352.157 372.499 363.63 365.406 370.548 358.666C377.468 351.926 392.743 334.971 392.743 334.971C392.743 334.971 391.652 333.88 386.006 332.23Z" fill="white"/>
<path opacity="0.5" d="M305.753 351.472L303.774 354.137L309.872 366.788L343.422 378.848L344.978 373.932C344.978 373.932 345.496 368.929 333.719 365.16C321.943 361.391 314.762 358.87 311.412 356.264C308.062 353.656 305.753 351.472 305.753 351.472Z" fill="white"/>
<path d="M194.987 257.514C194.987 257.514 184.714 255.973 179.917 264.375C175.121 272.779 175.611 276.417 175.611 276.417C175.611 276.417 182.397 282.585 191.73 282.269C201.063 281.953 214.667 271.197 219.096 267.717C223.525 264.237 234.697 254.271 242.319 256.328L243.16 249.121C243.16 249.121 242.419 245.89 235.898 246.759C229.378 247.627 226.821 251.349 224.724 251.349C222.627 251.349 220.635 249.326 216.385 256.545C216.385 256.545 201.566 259.175 194.987 257.514Z" fill="white"/>
<path d="M208.343 153.147C208.557 154.494 208.869 155.824 209.274 157.125C209.47 157.753 209.7 158.393 210.143 158.879C210.929 159.74 212.187 159.93 213.339 160.104C213.529 160.134 213.736 160.173 213.859 160.32C213.97 160.454 213.982 160.642 213.982 160.817C213.979 162.116 213.582 163.412 212.855 164.488" stroke="#263238" stroke-width="0.831129" stroke-miterlimit="10" stroke-linecap="round" stroke-linejoin="round"/>
<path opacity="0.1" d="M312.649 342.884L305.752 351.472C305.752 351.472 313.319 358.459 321.15 361.049C328.982 363.639 342.682 368.548 344.976 372.299L344.094 367.784C344.094 367.784 322.664 354.635 317.738 351.497C312.812 348.359 312.649 342.884 312.649 342.884Z" fill="black"/>
<path opacity="0.1" d="M336.563 362.968L350.285 370.763C350.285 370.763 357.042 366.144 360.382 362.703C363.723 359.262 367.798 355.504 370.317 347.846C373.799 337.262 383.775 332.23 383.775 332.23C383.775 332.23 369.903 338.759 362.681 343.888C355.459 349.017 348.42 351.148 344.333 350.801C344.333 350.801 347.616 361.195 336.563 362.968Z" fill="black"/>
<path d="M203.5 166.375C203.5 166.375 208.894 170.605 214.499 169.019C214.499 169.019 209.211 179.488 203.5 166.375Z" fill="white" stroke="#263238" stroke-width="0.831129" stroke-miterlimit="10" stroke-linecap="round" stroke-linejoin="round"/>
<path d="M203.335 157.232C203.491 158.397 203.14 159.405 202.553 159.484C201.965 159.562 201.362 158.682 201.206 157.517C201.05 156.353 201.401 155.345 201.988 155.266C202.576 155.187 203.179 156.068 203.335 157.232Z" fill="#263238"/>
<path d="M215.045 155.119C215.201 156.283 214.851 157.291 214.263 157.37C213.675 157.449 213.072 156.568 212.916 155.404C212.76 154.239 213.111 153.231 213.698 153.152C214.287 153.073 214.889 153.953 215.045 155.119Z" fill="#263238"/>
<path d="M202.483 152.298C202.483 152.298 199.339 150.678 197.102 154.15" stroke="#263238" stroke-width="0.831129" stroke-miterlimit="10" stroke-linecap="round" stroke-linejoin="round"/>
<path d="M210.525 150.138C210.525 150.138 213.842 147.284 215.771 150.138" stroke="#263238" stroke-width="0.831129" stroke-miterlimit="10" stroke-linecap="round" stroke-linejoin="round"/>
<path d="M191.8 162.993C191.8 162.993 189.778 160.007 187.66 160.104C185.541 160.2 184.674 163.186 185.445 166.075C186.215 168.964 189.393 173.009 191.8 172.623C194.208 172.237 195.267 170.696 195.267 170.696" stroke="#263238" stroke-width="0.831129" stroke-miterlimit="10" stroke-linecap="round" stroke-linejoin="round"/>
<path d="M211.162 140.166C213.435 142.047 215.833 144.106 217.022 146.879C218.034 149.239 218.265 151.851 219.192 154.248C220.18 156.801 221.267 159.472 221.349 162.256C221.424 164.791 220.848 167.426 220.343 169.894C219.907 172.03 219.569 174.232 218.802 176.281C217.685 179.265 215.612 181.1 212.834 182.518C210.813 183.549 207.448 185.029 205.266 183.633C203.993 182.818 202.085 180.426 200.494 178.238" stroke="#263238" stroke-width="0.831129" stroke-miterlimit="10" stroke-linecap="round" stroke-linejoin="round"/>
<path d="M191.801 172.623C191.801 172.623 195.373 181.385 194.506 187.548" stroke="#263238" stroke-width="0.831129" stroke-miterlimit="10" stroke-linecap="round" stroke-linejoin="round"/>
<path d="M190.883 161.521C191.839 160.829 192.386 159.612 192.269 158.439C192.134 157.091 191.199 155.847 191.385 154.504C191.477 153.846 191.831 153.259 192.099 152.652C193.083 150.433 192.918 147.74 191.67 145.659C191.67 145.659 203.021 146.19 208.342 142.805C213.664 139.422 217.712 130.774 214.497 126.638C211.282 122.503 205.016 128.143 200.379 128.768C195.742 129.395 179.199 132.027 176.567 138.419C173.935 144.81 177.946 147.072 178.071 153.147C178.196 159.223 178.189 170.73 187.279 169.677C187.279 169.677 183.88 165.28 186.239 160.748C187.847 158.818 190.883 161.521 190.883 161.521Z" fill="#263238"/>
<path d="M213.149 133.82C213.149 133.82 217.822 136.938 218.585 143.8C219.091 148.357 227.175 157.206 221.35 162.255C221.35 162.255 219.991 156.891 219.193 154.246C218.395 151.602 217.378 146.778 216.038 145.093C214.697 143.407 207.599 137.646 207.599 137.646L213.149 133.82Z" fill="#263238"/>
<path d="M192.85 187.357C192.85 187.357 198.452 191.042 208.857 191.196L210.073 205.152C210.073 205.152 198.378 204.258 189.67 196.255C189.67 196.255 187.32 190.03 187.941 187.357C188.561 184.684 194.135 182.028 194.135 182.028" stroke="#263238" stroke-width="0.831129" stroke-miterlimit="10" stroke-linecap="round" stroke-linejoin="round"/>
<path d="M216.386 181.113L216.721 186.081C212.939 189.957 208.857 191.198 208.857 191.198L215.373 203.603C215.373 203.603 223.139 197.555 223.914 191.198C223.914 191.198 223.978 184.685 222.629 182.825C221.279 180.964 216.337 180.087 216.337 180.087" stroke="#263238" stroke-width="0.831129" stroke-miterlimit="10" stroke-linecap="round" stroke-linejoin="round"/>
<path opacity="0.8" d="M184.854 142.544C185.696 140.455 187.959 139.256 190.179 138.883C192.4 138.509 194.672 138.786 196.924 138.726C200.009 138.646 203.123 137.902 205.731 136.251C208.339 134.601 210.4 131.987 211.053 128.971" stroke="white" stroke-width="0.831129" stroke-miterlimit="10" stroke-linecap="round" stroke-linejoin="round"/>
<path opacity="0.8" d="M179.489 142.142C180.898 137.874 185.451 135.244 189.93 134.864C192.149 134.675 194.392 134.937 196.603 134.677C198.813 134.417 201.115 133.504 202.27 131.601" stroke="white" stroke-width="0.831129" stroke-miterlimit="10" stroke-linecap="round" stroke-linejoin="round"/>
<path d="M177.132 277.62C166.344 283.222 162.487 277.46 156.471 272.688C150.455 267.917 154.397 259.411 153.152 245.719C151.907 232.027 155.019 208.792 155.019 208.792C155.019 208.792 157.716 208.17 165.184 203.602C172.653 199.034 188.382 192.065 188.382 192.065" stroke="#263238" stroke-width="0.831129" stroke-miterlimit="10" stroke-linecap="round" stroke-linejoin="round"/>
<path d="M187.836 256.931C187.836 256.931 186.122 251.504 181.282 251.357C176.441 251.21 168.816 253.394 163.385 263.679" stroke="#263238" stroke-width="0.831129" stroke-miterlimit="10" stroke-linecap="round" stroke-linejoin="round"/>
<path d="M180.181 251.034C179.88 251.039 179.591 250.929 179.308 250.826C175.353 249.394 170.959 249.195 166.89 250.265" stroke="#263238" stroke-width="0.831129" stroke-miterlimit="10" stroke-linecap="round" stroke-linejoin="round"/>
<path d="M164.11 216.211C172.904 225.934 177.196 238.8 181.261 251.265" stroke="#263238" stroke-width="0.831129" stroke-miterlimit="10" stroke-linecap="round" stroke-linejoin="round"/>
<path d="M223.915 189.897C223.915 189.897 239.875 193.703 247.668 194.609C255.461 195.515 256.729 196.602 256.729 196.602L258.178 202.039" stroke="#263238" stroke-width="0.831129" stroke-miterlimit="10" stroke-linecap="round" stroke-linejoin="round"/>
<path d="M298.28 199.377L243.93 201.467L239.489 257.362H248.8L295.989 246.793L301.927 200.722L298.28 199.377Z" fill="white"/>
<path d="M242.32 259.018L301.757 202.039L295.99 246.793L242.32 259.018Z" fill="#5E78F8"/>
<path opacity="0.7" d="M242.32 259.018L301.757 202.039L295.99 246.793L242.32 259.018Z" fill="white"/>
<path d="M242.32 257.514L247.07 203.602L301.928 200.722L295.99 246.793L242.32 257.514Z" stroke="#263238" stroke-width="0.831129" stroke-miterlimit="10" stroke-linecap="round" stroke-linejoin="round"/>
<path d="M278.804 226.838C278.433 230.121 276.68 232.617 274.888 232.414C273.096 232.212 271.944 229.387 272.314 226.105C272.685 222.822 274.439 220.325 276.231 220.528C278.023 220.73 279.175 223.555 278.804 226.838Z" fill="#263238"/>
<path d="M295.989 246.793C295.989 246.793 321.106 246.079 328.962 251.264C336.819 256.45 341.424 282.457 340.34 296.273C339.256 310.09 329.775 341.786 329.775 341.786L311.624 321.197C311.624 321.197 302.684 288.688 307.56 275.956C307.56 275.956 283.449 277.31 273.968 274.33C273.968 274.33 265.464 260.411 250.888 255.802L295.989 246.793Z" fill="#263238"/>
<path d="M333.608 342.323C325.937 335.376 318.537 325.815 316.341 322.415C307.556 308.843 295.411 295.786 282.921 285.655C272.85 277.487 270.573 264.188 258.154 257.518C237.588 246.486 219.805 268.408 213.155 272.841C206.506 277.275 194.988 282.275 194.988 282.275C194.988 282.275 199.188 298.034 211.536 299.936C223.884 301.839 236.383 293.286 242.324 297.406C248.265 301.515 252.607 319.885 272.121 330.654C288.072 339.449 309.802 348.032 321.016 353.811C323.526 355.107 325.372 356.471 326.785 357.242C330.658 359.354 334.797 361.845 338.701 364.302L352.157 372.498C352.157 372.498 365.66 364.511 370.846 357.145C371.544 356.155 372.977 353.519 374.323 350.975C377.261 345.421 380.956 340.434 386.118 337.66C389.678 335.747 392.846 335.159 392.744 334.971C392.401 334.337 385.955 331.04 381.571 332.845C372.297 336.671 353.758 351.393 345.032 350.303C345.032 350.303 338.675 346.913 333.608 342.323Z" stroke="#263238" stroke-width="0.831129" stroke-miterlimit="10"/>
<path d="M333.607 342.323C325.52 345.592 322.261 350.623 321.016 353.811C309.802 348.032 288.072 339.449 272.121 330.654C252.608 319.885 248.265 301.515 242.324 297.406C236.383 293.287 223.883 301.839 211.536 299.936C199.187 298.033 194.991 282.27 194.991 282.27C194.991 282.27 206.508 277.277 213.158 272.844C219.808 268.411 235.14 246.481 258.153 257.517C270.865 263.613 272.849 277.487 282.92 285.654C295.409 295.786 307.554 308.842 316.339 322.414C318.536 325.816 325.915 335.4 333.607 342.323Z" fill="#263238"/>
<path d="M272.837 271.866C272.837 271.866 266.613 259.214 256.627 256.76" stroke="white" stroke-width="0.831129" stroke-miterlimit="10" stroke-linecap="round" stroke-linejoin="round"/>
<path d="M240.208 246.679C233.341 245.181 225.802 252.77 222.628 251.35C220.267 250.294 216.386 256.545 216.386 256.545C216.386 256.545 206.334 258.098 197.085 257.515C187.836 256.931 183.452 258.727 180.18 263.679L175.611 275.782C175.611 275.782 187.665 286.6 200.549 280.297C213.431 273.994 230.534 255.029 242.319 255.094" stroke="#263238" stroke-width="0.831129" stroke-miterlimit="10" stroke-linecap="round" stroke-linejoin="round"/>
<path d="M336.039 362.645C336.039 362.645 347.317 363.572 344.669 350.105" stroke="#263238" stroke-width="0.831129" stroke-miterlimit="10"/>
<path d="M389.154 341.786C388.299 343.483 377.987 352.242 369.085 359.93C369.112 359.81 371.547 355.118 372.616 353.115C374.978 348.692 381.095 336.565 392.744 334.971C394.397 335.966 389.154 341.786 389.154 341.786Z" fill="#263238"/>
<path d="M384.721 332.316C372.945 334.667 370.272 349.754 366.089 356.2C361.907 362.647 350.285 371.358 350.285 371.358" stroke="#263238" stroke-width="0.831129" stroke-miterlimit="10"/>
<path d="M343.949 367.498C345.863 371.009 344.958 375.08 343.949 377.629C343.102 379.775 342.101 381.261 342.101 381.261C325.429 378.522 308.757 369.564 308.757 369.564L304.458 356.263L303.773 354.136L310.244 345.422" stroke="#263238" stroke-width="0.831129" stroke-miterlimit="10"/>
<path d="M343.948 377.63C343.101 379.775 342.101 381.262 342.101 381.262C325.429 378.523 308.757 369.565 308.757 369.565L304.458 356.263C306.611 359.075 310.604 363.184 316.587 364.879C324.708 367.176 339.695 369.871 343.948 377.63Z" fill="#263238"/>
<path d="M239.489 255.417L243.93 201.467L298.28 199.377L301.927 200.722" stroke="#263238" stroke-width="0.831129" stroke-miterlimit="10" stroke-linecap="round" stroke-linejoin="round"/>
<path d="M344.553 356.2C344.553 356.2 351.986 357.526 357.693 352.867C363.399 348.209 372.604 337.683 372.604 337.683" stroke="#263238" stroke-width="0.831129" stroke-miterlimit="10"/>
<path d="M352.157 349.479C352.157 349.479 350.365 352.181 352.157 357.606" stroke="#263238" stroke-width="0.831129" stroke-miterlimit="10" stroke-linecap="round" stroke-linejoin="round"/>
<path d="M357.426 346.913C357.426 346.913 355.989 350.953 358.098 355.037" stroke="#263238" stroke-width="0.831129" stroke-miterlimit="10" stroke-linecap="round" stroke-linejoin="round"/>
<path d="M363.705 343.272C363.705 343.272 362.2 347.788 363.705 351.77" stroke="#263238" stroke-width="0.831129" stroke-miterlimit="10" stroke-linecap="round" stroke-linejoin="round"/>
<path d="M311.717 344.298L305.752 351.472C305.752 351.472 311.761 358.026 320.223 360.751C328.684 363.477 343.824 368.107 345.075 373.035" stroke="#263238" stroke-width="0.831129" stroke-miterlimit="10"/>
</svg>
